<svg version="1.1" id="Layer_1" xmlns="http://www.w3.org/2000/svg" xmlns:xlink="http://www.w3.org/1999/xlink" x="0px" y="0px"
	 width="100%" viewBox="0 0 116 86" enable-background="new 0 0 116 86" xml:space="preserve">
<path fill="#4A51D3" opacity="1.000000" stroke="none" 
	d="
M4.000000,1.000000 
	C41.613956,1.000000 79.227913,1.000000 116.920929,1.000000 
	C116.920929,29.573660 116.920929,58.147587 116.920929,87.000000 
	C79.312897,87.000000 41.625107,87.000000 3.451752,86.582703 
	C2.697174,83.371956 2.113686,80.567825 2.208169,77.786713 
	C3.077535,52.196999 0.078792,26.515720 4.000000,1.000000 
M49.500671,14.040278 
	C44.336258,14.041489 39.151054,13.772556 34.016960,14.167697 
	C31.743832,14.342646 29.093184,15.343152 27.448549,16.868692 
	C22.695097,21.277927 18.429157,26.207661 13.841366,30.802803 
	C11.699519,32.948086 11.868348,34.626690 13.927453,36.700340 
	C28.244282,51.118294 42.522060,65.575256 56.754765,80.076248 
	C58.884434,82.246056 60.649628,82.116005 62.676781,80.052643 
	C70.613518,71.974129 78.640709,63.983406 86.487648,55.819118 
	C87.464264,54.802998 88.300751,52.722698 87.938362,51.514595 
	C86.575745,46.971935 77.743401,41.302967 72.672508,41.263626 
	C64.328209,41.198887 64.327713,41.198883 64.412071,33.023312 
	C64.420670,32.190498 64.118904,31.129465 64.517067,30.569878 
	C65.521126,29.158745 66.743645,27.008121 68.055069,26.873560 
	C72.504799,26.416992 77.042686,26.507128 81.524200,26.772125 
	C85.063202,26.981390 90.256538,32.275738 89.135086,34.535980 
	C86.272362,40.305702 91.874367,41.615246 94.276344,44.353035 
	C94.695168,44.830421 98.440086,42.538952 100.535568,41.330029 
	C101.511513,40.766991 102.196205,39.712608 103.048126,38.918720 
	C106.461525,35.737839 106.841827,32.470016 103.451904,28.994974 
	C99.971069,25.426723 96.413666,21.921389 93.122757,18.183397 
	C90.496384,15.200235 87.476280,13.915657 83.485451,13.975513 
	C72.492569,14.140388 61.495674,14.037479 49.500671,14.040278 
z"/>
<path fill="#9194DC" opacity="1.000000" stroke="none" 
	d="
M3.500000,1.000000 
	C0.078792,26.515720 3.077535,52.196999 2.208169,77.786713 
	C2.113686,80.567825 2.697174,83.371956 2.983095,86.582703 
	C-0.047127,87.610931 1.035451,85.296898 1.032577,84.027550 
	C0.986422,63.640911 1.000000,43.254135 1.000000,22.867392 
	C1.000000,16.237556 0.942624,9.606467 1.087451,2.979797 
	C1.102171,2.306254 2.333333,1.659295 3.500000,1.000000 
z"/>
<path fill="#DADAE4" opacity="1.000000" stroke="none" 
	d="
M50.000519,14.040388 
	C61.495674,14.037479 72.492569,14.140388 83.485451,13.975513 
	C87.476280,13.915657 90.496384,15.200235 93.122757,18.183397 
	C96.413666,21.921389 99.971069,25.426723 103.451904,28.994974 
	C106.841827,32.470016 106.461525,35.737839 103.048126,38.918720 
	C102.196205,39.712608 101.511513,40.766991 100.535568,41.330029 
	C98.440086,42.538952 94.695168,44.830421 94.276344,44.353035 
	C91.874367,41.615246 86.272362,40.305702 89.135086,34.535980 
	C90.256538,32.275738 85.063202,26.981390 81.524200,26.772125 
	C77.042686,26.507128 72.504799,26.416992 68.055069,26.873560 
	C66.743645,27.008121 65.521126,29.158745 64.517067,30.569878 
	C64.118904,31.129465 64.420670,32.190498 64.412071,33.023312 
	C64.327713,41.198883 64.328209,41.198887 72.672508,41.263626 
	C77.743401,41.302967 86.575745,46.971935 87.938362,51.514595 
	C88.300751,52.722698 87.464264,54.802998 86.487648,55.819118 
	C78.640709,63.983406 70.613518,71.974129 62.676781,80.052643 
	C60.649628,82.116005 58.884434,82.246056 56.754765,80.076248 
	C42.522060,65.575256 28.244282,51.118294 13.927453,36.700340 
	C11.868348,34.626690 11.699519,32.948086 13.841366,30.802803 
	C18.429157,26.207661 22.695097,21.277927 27.448549,16.868692 
	C29.093184,15.343152 31.743832,14.342646 34.016960,14.167697 
	C39.151054,13.772556 44.336258,14.041489 50.000519,14.040388 
M36.593395,26.641283 
	C28.716526,30.750694 28.153635,33.513802 33.996067,39.395771 
	C41.377007,46.826664 48.706615,54.310078 56.194622,61.631477 
	C57.337090,62.748531 60.038513,64.131981 60.616219,63.663292 
	C64.317627,60.660355 67.627342,57.174633 71.065834,53.847633 
	C70.777802,53.349335 70.489761,52.851036 70.201729,52.352737 
	C68.280800,52.226952 66.359253,52.109741 64.439049,51.973740 
	C59.123505,51.597263 52.406086,44.727337 52.183903,39.448189 
	C51.620987,26.072855 51.620987,26.072802 37.924442,26.516039 
	C37.758270,26.521414 37.592396,26.536152 36.593395,26.641283 
z"/>
<path fill="#545AD4" opacity="1.000000" stroke="none" 
	d="
M37.009888,26.593903 
	C37.592396,26.536152 37.758270,26.521414 37.924442,26.516039 
	C51.620987,26.072802 51.620987,26.072855 52.183903,39.448189 
	C52.406086,44.727337 59.123505,51.597263 64.439049,51.973740 
	C66.359253,52.109741 68.280800,52.226952 70.201729,52.352737 
	C70.489761,52.851036 70.777802,53.349335 71.065834,53.847633 
	C67.627342,57.174633 64.317627,60.660355 60.616219,63.663292 
	C60.038513,64.131981 57.337090,62.748531 56.194622,61.631477 
	C48.706615,54.310078 41.377007,46.826664 33.996067,39.395771 
	C28.153635,33.513802 28.716526,30.750694 37.009888,26.593903 
z"/>
</svg>