<?xml version="1.0" standalone="no"?>
<!DOCTYPE svg PUBLIC "-//W3C//DTD SVG 20010904//EN"
 "http://www.w3.org/TR/2001/REC-SVG-20010904/DTD/svg10.dtd">
<svg version="1.0" xmlns="http://www.w3.org/2000/svg"
 width="72.000000pt" height="72.000000pt" viewBox="0 0 72.000000 72.000000"
 preserveAspectRatio="xMidYMid meet">
<metadata>
Created by potrace 1.16, written by Peter Selinger 2001-2019
</metadata>
<g transform="translate(0.000000,72.000000) scale(0.100000,-0.100000)"
fill="#000000" stroke="none">
<path d="M337 714 c-4 -4 -7 -31 -7 -61 l0 -53 -51 0 c-46 0 -55 -4 -90 -39
-36 -36 -39 -43 -39 -96 0 -53 3 -60 39 -96 35 -35 44 -39 90 -39 l51 0 0 -75
0 -74 -87 -3 c-86 -3 -88 -3 -88 -28 0 -25 2 -25 87 -28 l87 -3 3 -57 c3 -53
5 -57 28 -57 23 0 25 4 28 58 l3 57 51 0 c45 0 54 4 89 39 36 36 39 43 39 96
0 53 -3 60 -39 96 -35 35 -44 39 -90 39 l-51 0 0 75 0 74 73 3 c69 3 72 4 72
28 0 24 -3 25 -72 28 l-72 3 -3 57 c-3 49 -6 57 -23 60 -12 2 -24 0 -28 -4z"/>
</g>
</svg>
