<?xml version="1.0" standalone="no"?>
<!DOCTYPE svg PUBLIC "-//W3C//DTD SVG 20010904//EN"
 "http://www.w3.org/TR/2001/REC-SVG-20010904/DTD/svg10.dtd">
<svg version="1.0" xmlns="http://www.w3.org/2000/svg"
 width="62.000000pt" height="62.000000pt" viewBox="0 0 62.000000 62.000000"
 preserveAspectRatio="xMidYMid meet">
<metadata>
Created by potrace 1.16, written by Peter Selinger 2001-2019
</metadata>
<g transform="translate(0.000000,62.000000) scale(0.100000,-0.100000)"
fill="#000000" stroke="none">
<path d="M181 552 c-48 -24 -74 -63 -74 -110 0 -131 166 -180 233 -69 40 65
13 154 -55 183 -45 18 -63 18 -104 -4z m88 -47 c31 -16 41 -33 41 -71 0 -32
-42 -74 -74 -74 -39 0 -79 41 -79 80 0 24 7 40 27 57 32 27 47 28 85 8z"/>
<path d="M390 543 c0 -10 14 -26 30 -35 61 -34 61 -102 0 -136 -54 -31 -30
-75 25 -46 80 41 92 151 24 208 -36 30 -79 35 -79 9z"/>
<path d="M71 242 c-19 -10 -43 -34 -53 -53 -23 -43 -25 -124 -2 -133 26 -10
34 2 34 52 1 87 29 102 188 102 106 0 122 -2 146 -21 22 -17 26 -29 26 -69 0
-48 18 -78 40 -65 5 3 10 32 10 64 0 45 -5 65 -22 86 -35 45 -74 55 -210 55
-100 0 -130 -3 -157 -18z"/>
</g>
</svg>
